<?xml version="1.0" standalone="no"?>
<!DOCTYPE svg PUBLIC "-//W3C//DTD SVG 20010904//EN"
 "http://www.w3.org/TR/2001/REC-SVG-20010904/DTD/svg10.dtd">
<svg version="1.0" xmlns="http://www.w3.org/2000/svg"
 width="482.000000pt" height="482.000000pt" viewBox="0 0 482.000000 482.000000"
 preserveAspectRatio="xMidYMid meet">
<metadata>
Created by potrace 1.11, written by Peter Selinger 2001-2013
</metadata>
<g transform="translate(0.000000,482.000000) scale(0.100000,-0.100000)"
fill="#000000" stroke="none">
<path d="M1700 4084 c-250 -52 -446 -157 -615 -328 -202 -204 -307 -422 -349
-721 -2 -16 -5 -67 -5 -112 -1 -61 -4 -83 -14 -83 -22 0 -173 -77 -240 -121
-84 -57 -226 -201 -280 -286 -133 -206 -190 -402 -182 -633 12 -389 219 -730
555 -913 64 -36 210 -99 210 -92 0 2 15 -1 33 -6 123 -37 141 -38 1642 -38
1570 0 1535 -1 1695 51 379 123 646 484 655 883 7 355 -176 679 -485 858 -57
32 -195 88 -235 94 -16 3 -33 8 -37 12 -4 3 2 36 13 71 13 42 21 99 23 162 10
353 -217 646 -564 728 -91 21 -160 23 -285 6 -39 -5 -131 -39 -200 -73 -45
-23 -71 -31 -73 -24 -10 30 -132 183 -196 246 -168 166 -401 286 -631 326
-121 21 -315 18 -435 -7z"/>
</g>
</svg>
